<mxfile host="app.diagrams.net" modified="2024-03-02T07:15:03.493Z" agent="Mozilla/5.0 (Macintosh; Intel Mac OS X 10_15_7) AppleWebKit/605.1.15 (KHTML, like Gecko) Version/16.4 Safari/605.1.15" etag="3tHZu2PwSCreAQVerjkV" version="23.1.8" type="github" pages="3">
  <diagram name="Basic User Setup" id="N_4NWSx4PDSUiFLjOK5d">
    <mxGraphModel dx="1434" dy="804" grid="1" gridSize="10" guides="1" tooltips="1" connect="1" arrows="1" fold="1" page="1" pageScale="1" pageWidth="827" pageHeight="1169" math="0" shadow="0">
      <root>
        <mxCell id="0" />
        <mxCell id="1" parent="0" />
        <mxCell id="zbF3CzR-IgTavKdsmXYZ-1" value="max=[55]" style="rounded=0;whiteSpace=wrap;html=1;" parent="1" vertex="1">
          <mxGeometry x="240" y="170" width="120" height="40" as="geometry" />
        </mxCell>
        <mxCell id="zbF3CzR-IgTavKdsmXYZ-3" value="User parameters" style="rounded=0;whiteSpace=wrap;html=1;fillColor=#fff2cc;strokeColor=#d6b656;" parent="1" vertex="1">
          <mxGeometry x="240" y="80" width="120" height="40" as="geometry" />
        </mxCell>
        <mxCell id="zbF3CzR-IgTavKdsmXYZ-26" style="edgeStyle=orthogonalEdgeStyle;rounded=0;orthogonalLoop=1;jettySize=auto;html=1;exitX=0.5;exitY=1;exitDx=0;exitDy=0;" parent="1" source="zbF3CzR-IgTavKdsmXYZ-7" target="zbF3CzR-IgTavKdsmXYZ-15" edge="1">
          <mxGeometry relative="1" as="geometry" />
        </mxCell>
        <mxCell id="zbF3CzR-IgTavKdsmXYZ-7" value="Selecting options" style="swimlane;fontStyle=0;childLayout=stackLayout;horizontal=1;startSize=30;horizontalStack=0;resizeParent=1;resizeParentMax=0;resizeLast=0;collapsible=1;marginBottom=0;whiteSpace=wrap;html=1;" parent="1" vertex="1">
          <mxGeometry x="240" y="280" width="120" height="120" as="geometry">
            <mxRectangle x="330" y="150" width="60" height="30" as="alternateBounds" />
          </mxGeometry>
        </mxCell>
        <mxCell id="zbF3CzR-IgTavKdsmXYZ-9" value="Uppercase=[True]" style="text;strokeColor=#666666;fillColor=#f5f5f5;align=left;verticalAlign=middle;spacingLeft=4;spacingRight=4;overflow=hidden;points=[[0,0.5],[1,0.5]];portConstraint=eastwest;rotatable=0;whiteSpace=wrap;html=1;fontColor=#333333;" parent="zbF3CzR-IgTavKdsmXYZ-7" vertex="1">
          <mxGeometry y="30" width="120" height="30" as="geometry" />
        </mxCell>
        <mxCell id="zbF3CzR-IgTavKdsmXYZ-11" value="Numbers=[True]" style="text;strokeColor=#666666;fillColor=#f5f5f5;align=left;verticalAlign=middle;spacingLeft=4;spacingRight=4;overflow=hidden;points=[[0,0.5],[1,0.5]];portConstraint=eastwest;rotatable=0;whiteSpace=wrap;html=1;fontColor=#333333;" parent="zbF3CzR-IgTavKdsmXYZ-7" vertex="1">
          <mxGeometry y="60" width="120" height="30" as="geometry" />
        </mxCell>
        <mxCell id="zbF3CzR-IgTavKdsmXYZ-10" value="Symbols=[True]" style="text;align=left;verticalAlign=middle;spacingLeft=4;spacingRight=4;overflow=hidden;points=[[0,0.5],[1,0.5]];portConstraint=eastwest;rotatable=0;whiteSpace=wrap;html=1;fillColor=#f5f5f5;fontColor=#333333;strokeColor=#666666;" parent="zbF3CzR-IgTavKdsmXYZ-7" vertex="1">
          <mxGeometry y="90" width="120" height="30" as="geometry" />
        </mxCell>
        <mxCell id="zbF3CzR-IgTavKdsmXYZ-12" value="&lt;font style=&quot;font-size: 9px;&quot;&gt;(Entering options)&lt;/font&gt;" style="text;html=1;align=center;verticalAlign=middle;whiteSpace=wrap;rounded=0;" parent="1" vertex="1">
          <mxGeometry x="240" y="190" width="120" height="30" as="geometry" />
        </mxCell>
        <mxCell id="zbF3CzR-IgTavKdsmXYZ-13" value="" style="endArrow=classic;html=1;rounded=0;entryX=0.5;entryY=0;entryDx=0;entryDy=0;exitX=0.5;exitY=1;exitDx=0;exitDy=0;strokeColor=default;align=center;verticalAlign=middle;fontFamily=Helvetica;fontSize=11;fontColor=default;labelBackgroundColor=default;" parent="1" source="zbF3CzR-IgTavKdsmXYZ-3" target="zbF3CzR-IgTavKdsmXYZ-1" edge="1">
          <mxGeometry width="50" height="50" relative="1" as="geometry">
            <mxPoint x="290" y="120" as="sourcePoint" />
            <mxPoint x="340" y="70" as="targetPoint" />
          </mxGeometry>
        </mxCell>
        <mxCell id="zbF3CzR-IgTavKdsmXYZ-19" style="edgeStyle=orthogonalEdgeStyle;rounded=0;orthogonalLoop=1;jettySize=auto;html=1;entryX=0.5;entryY=0;entryDx=0;entryDy=0;" parent="1" source="zbF3CzR-IgTavKdsmXYZ-15" target="zbF3CzR-IgTavKdsmXYZ-18" edge="1">
          <mxGeometry relative="1" as="geometry" />
        </mxCell>
        <mxCell id="zbF3CzR-IgTavKdsmXYZ-29" style="edgeStyle=orthogonalEdgeStyle;rounded=0;orthogonalLoop=1;jettySize=auto;html=1;exitX=1;exitY=0.5;exitDx=0;exitDy=0;entryX=0.5;entryY=0;entryDx=0;entryDy=0;" parent="1" source="zbF3CzR-IgTavKdsmXYZ-15" target="zbF3CzR-IgTavKdsmXYZ-28" edge="1">
          <mxGeometry relative="1" as="geometry" />
        </mxCell>
        <mxCell id="zbF3CzR-IgTavKdsmXYZ-15" value="Did user change &lt;br&gt;default settings?" style="rhombus;whiteSpace=wrap;html=1;" parent="1" vertex="1">
          <mxGeometry x="235" y="480" width="130" height="130" as="geometry" />
        </mxCell>
        <mxCell id="zbF3CzR-IgTavKdsmXYZ-18" value="Choose random 55 char from&lt;br&gt;&lt;b&gt;all_available_characters &lt;/b&gt;and &lt;br&gt;use all options" style="rounded=0;whiteSpace=wrap;html=1;" parent="1" vertex="1">
          <mxGeometry x="70" y="610" width="160" height="80" as="geometry" />
        </mxCell>
        <mxCell id="zbF3CzR-IgTavKdsmXYZ-21" value="&lt;font style=&quot;font-size: 15px;&quot;&gt;No&lt;/font&gt;" style="text;html=1;align=center;verticalAlign=middle;whiteSpace=wrap;rounded=0;" parent="1" vertex="1">
          <mxGeometry x="160" y="515" width="60" height="30" as="geometry" />
        </mxCell>
        <mxCell id="zbF3CzR-IgTavKdsmXYZ-25" value="" style="endArrow=classic;html=1;rounded=0;entryX=0.5;entryY=0;entryDx=0;entryDy=0;exitX=0.5;exitY=1;exitDx=0;exitDy=0;strokeColor=default;align=center;verticalAlign=middle;fontFamily=Helvetica;fontSize=11;fontColor=default;labelBackgroundColor=default;" parent="1" target="zbF3CzR-IgTavKdsmXYZ-7" edge="1">
          <mxGeometry width="50" height="50" relative="1" as="geometry">
            <mxPoint x="299.5" y="210" as="sourcePoint" />
            <mxPoint x="299.5" y="260" as="targetPoint" />
          </mxGeometry>
        </mxCell>
        <mxCell id="zbF3CzR-IgTavKdsmXYZ-28" value="Use entered and selected parameters&amp;nbsp;" style="rounded=0;whiteSpace=wrap;html=1;" parent="1" vertex="1">
          <mxGeometry x="370" y="610" width="160" height="80" as="geometry" />
        </mxCell>
        <mxCell id="zbF3CzR-IgTavKdsmXYZ-30" value="&lt;font style=&quot;font-size: 15px;&quot;&gt;Yes&lt;/font&gt;" style="text;html=1;align=center;verticalAlign=middle;whiteSpace=wrap;rounded=0;" parent="1" vertex="1">
          <mxGeometry x="370" y="515" width="60" height="30" as="geometry" />
        </mxCell>
      </root>
    </mxGraphModel>
  </diagram>
  <diagram id="c3B6bcl9Q5xFeJvbPIpL" name="Method To Set Cust Options">
    <mxGraphModel grid="1" page="1" gridSize="10" guides="1" tooltips="1" connect="1" arrows="1" fold="1" pageScale="1" pageWidth="827" pageHeight="1169" math="0" shadow="0">
      <root>
        <mxCell id="0" />
        <mxCell id="1" parent="0" />
        <mxCell id="7wAp7gqFgZ6DAbRb2kd5-7" style="edgeStyle=orthogonalEdgeStyle;rounded=0;orthogonalLoop=1;jettySize=auto;html=1;entryX=0.5;entryY=0;entryDx=0;entryDy=0;" parent="1" source="7wAp7gqFgZ6DAbRb2kd5-1" target="7wAp7gqFgZ6DAbRb2kd5-2" edge="1">
          <mxGeometry relative="1" as="geometry">
            <mxPoint x="454" y="170" as="sourcePoint" />
          </mxGeometry>
        </mxCell>
        <mxCell id="7wAp7gqFgZ6DAbRb2kd5-11" style="edgeStyle=orthogonalEdgeStyle;rounded=0;orthogonalLoop=1;jettySize=auto;html=1;exitX=0;exitY=0.5;exitDx=0;exitDy=0;entryX=0.5;entryY=0;entryDx=0;entryDy=0;" parent="1" source="7wAp7gqFgZ6DAbRb2kd5-1" target="7wAp7gqFgZ6DAbRb2kd5-10" edge="1">
          <mxGeometry relative="1" as="geometry" />
        </mxCell>
        <mxCell id="7wAp7gqFgZ6DAbRb2kd5-1" value="uppercase?" style="rhombus;whiteSpace=wrap;html=1;" parent="1" vertex="1">
          <mxGeometry x="320" y="120" width="80" height="80" as="geometry" />
        </mxCell>
        <mxCell id="7wAp7gqFgZ6DAbRb2kd5-14" style="edgeStyle=orthogonalEdgeStyle;rounded=0;orthogonalLoop=1;jettySize=auto;html=1;exitX=0.5;exitY=1;exitDx=0;exitDy=0;" parent="1" source="7wAp7gqFgZ6DAbRb2kd5-2" target="7wAp7gqFgZ6DAbRb2kd5-13" edge="1">
          <mxGeometry relative="1" as="geometry" />
        </mxCell>
        <mxCell id="7wAp7gqFgZ6DAbRb2kd5-2" value="add &lt;b&gt;upper&lt;/b&gt; case option" style="rounded=0;whiteSpace=wrap;html=1;" parent="1" vertex="1">
          <mxGeometry x="684" y="210" width="80" height="40" as="geometry" />
        </mxCell>
        <mxCell id="7wAp7gqFgZ6DAbRb2kd5-8" value="True" style="text;html=1;align=center;verticalAlign=middle;whiteSpace=wrap;rounded=0;" parent="1" vertex="1">
          <mxGeometry x="500" y="130" width="60" height="30" as="geometry" />
        </mxCell>
        <mxCell id="7wAp7gqFgZ6DAbRb2kd5-24" style="edgeStyle=orthogonalEdgeStyle;rounded=0;orthogonalLoop=1;jettySize=auto;html=1;exitX=0;exitY=0.5;exitDx=0;exitDy=0;entryX=0.5;entryY=0;entryDx=0;entryDy=0;" parent="1" source="7wAp7gqFgZ6DAbRb2kd5-10" target="7wAp7gqFgZ6DAbRb2kd5-23" edge="1">
          <mxGeometry relative="1" as="geometry" />
        </mxCell>
        <mxCell id="7wAp7gqFgZ6DAbRb2kd5-56" style="edgeStyle=orthogonalEdgeStyle;rounded=0;orthogonalLoop=1;jettySize=auto;html=1;exitX=1;exitY=0.5;exitDx=0;exitDy=0;" parent="1" source="7wAp7gqFgZ6DAbRb2kd5-10" target="7wAp7gqFgZ6DAbRb2kd5-16" edge="1">
          <mxGeometry relative="1" as="geometry">
            <mxPoint x="50" y="252.5" as="sourcePoint" />
          </mxGeometry>
        </mxCell>
        <mxCell id="7wAp7gqFgZ6DAbRb2kd5-10" value="Numbers?" style="rhombus;whiteSpace=wrap;html=1;" parent="1" vertex="1">
          <mxGeometry x="-40" y="210" width="80" height="80" as="geometry" />
        </mxCell>
        <mxCell id="7wAp7gqFgZ6DAbRb2kd5-12" value="False" style="text;html=1;align=center;verticalAlign=middle;whiteSpace=wrap;rounded=0;" parent="1" vertex="1">
          <mxGeometry x="120" y="130" width="60" height="30" as="geometry" />
        </mxCell>
        <mxCell id="7wAp7gqFgZ6DAbRb2kd5-26" style="edgeStyle=orthogonalEdgeStyle;rounded=0;orthogonalLoop=1;jettySize=auto;html=1;entryX=0.5;entryY=0;entryDx=0;entryDy=0;" parent="1" source="7wAp7gqFgZ6DAbRb2kd5-13" target="7wAp7gqFgZ6DAbRb2kd5-22" edge="1">
          <mxGeometry relative="1" as="geometry">
            <mxPoint x="634" y="330" as="sourcePoint" />
          </mxGeometry>
        </mxCell>
        <mxCell id="7wAp7gqFgZ6DAbRb2kd5-52" style="edgeStyle=orthogonalEdgeStyle;rounded=0;orthogonalLoop=1;jettySize=auto;html=1;exitX=1;exitY=0.5;exitDx=0;exitDy=0;entryX=0.5;entryY=0;entryDx=0;entryDy=0;" parent="1" source="7wAp7gqFgZ6DAbRb2kd5-13" target="7wAp7gqFgZ6DAbRb2kd5-15" edge="1">
          <mxGeometry relative="1" as="geometry" />
        </mxCell>
        <mxCell id="7wAp7gqFgZ6DAbRb2kd5-13" value="Numbers?" style="rhombus;whiteSpace=wrap;html=1;" parent="1" vertex="1">
          <mxGeometry x="684" y="290" width="80" height="80" as="geometry" />
        </mxCell>
        <mxCell id="7wAp7gqFgZ6DAbRb2kd5-27" style="edgeStyle=orthogonalEdgeStyle;rounded=0;orthogonalLoop=1;jettySize=auto;html=1;exitX=0.5;exitY=1;exitDx=0;exitDy=0;entryX=0.5;entryY=0;entryDx=0;entryDy=0;" parent="1" target="7wAp7gqFgZ6DAbRb2kd5-25" edge="1">
          <mxGeometry relative="1" as="geometry">
            <mxPoint x="880" y="412.5" as="sourcePoint" />
          </mxGeometry>
        </mxCell>
        <mxCell id="7wAp7gqFgZ6DAbRb2kd5-15" value="add &lt;b&gt;numbers&lt;/b&gt; case option" style="rounded=0;whiteSpace=wrap;html=1;" parent="1" vertex="1">
          <mxGeometry x="840" y="372.5" width="80" height="40" as="geometry" />
        </mxCell>
        <mxCell id="7wAp7gqFgZ6DAbRb2kd5-55" style="edgeStyle=orthogonalEdgeStyle;rounded=0;orthogonalLoop=1;jettySize=auto;html=1;exitX=0.5;exitY=1;exitDx=0;exitDy=0;entryX=0.5;entryY=0;entryDx=0;entryDy=0;" parent="1" source="7wAp7gqFgZ6DAbRb2kd5-16" target="7wAp7gqFgZ6DAbRb2kd5-54" edge="1">
          <mxGeometry relative="1" as="geometry" />
        </mxCell>
        <mxCell id="7wAp7gqFgZ6DAbRb2kd5-16" value="add &lt;b&gt;numbers&lt;/b&gt; case option" style="rounded=0;whiteSpace=wrap;html=1;" parent="1" vertex="1">
          <mxGeometry x="130" y="300" width="80" height="40" as="geometry" />
        </mxCell>
        <mxCell id="7wAp7gqFgZ6DAbRb2kd5-19" value="False" style="text;html=1;align=center;verticalAlign=middle;whiteSpace=wrap;rounded=0;" parent="1" vertex="1">
          <mxGeometry x="-100" y="220" width="60" height="30" as="geometry" />
        </mxCell>
        <mxCell id="7wAp7gqFgZ6DAbRb2kd5-20" value="True" style="text;html=1;align=center;verticalAlign=middle;whiteSpace=wrap;rounded=0;" parent="1" vertex="1">
          <mxGeometry x="790" y="300" width="60" height="30" as="geometry" />
        </mxCell>
        <mxCell id="7wAp7gqFgZ6DAbRb2kd5-21" value="True" style="text;html=1;align=center;verticalAlign=middle;whiteSpace=wrap;rounded=0;" parent="1" vertex="1">
          <mxGeometry x="70" y="222.5" width="60" height="30" as="geometry" />
        </mxCell>
        <mxCell id="7wAp7gqFgZ6DAbRb2kd5-34" style="edgeStyle=orthogonalEdgeStyle;rounded=0;orthogonalLoop=1;jettySize=auto;html=1;exitX=1;exitY=0.5;exitDx=0;exitDy=0;" parent="1" source="7wAp7gqFgZ6DAbRb2kd5-22" target="7wAp7gqFgZ6DAbRb2kd5-32" edge="1">
          <mxGeometry relative="1" as="geometry" />
        </mxCell>
        <mxCell id="7wAp7gqFgZ6DAbRb2kd5-39" style="edgeStyle=orthogonalEdgeStyle;rounded=0;orthogonalLoop=1;jettySize=auto;html=1;exitX=0;exitY=0.5;exitDx=0;exitDy=0;entryX=0.5;entryY=0;entryDx=0;entryDy=0;" parent="1" source="7wAp7gqFgZ6DAbRb2kd5-22" target="7wAp7gqFgZ6DAbRb2kd5-38" edge="1">
          <mxGeometry relative="1" as="geometry" />
        </mxCell>
        <mxCell id="7wAp7gqFgZ6DAbRb2kd5-22" value="Symbols?" style="rhombus;whiteSpace=wrap;html=1;" parent="1" vertex="1">
          <mxGeometry x="500" y="370" width="80" height="80" as="geometry" />
        </mxCell>
        <mxCell id="7wAp7gqFgZ6DAbRb2kd5-66" style="edgeStyle=orthogonalEdgeStyle;rounded=0;orthogonalLoop=1;jettySize=auto;html=1;exitX=0.5;exitY=1;exitDx=0;exitDy=0;entryX=0.5;entryY=0;entryDx=0;entryDy=0;" parent="1" source="cqtuQnzMamP3KueugGHB-1" target="7wAp7gqFgZ6DAbRb2kd5-65" edge="1">
          <mxGeometry relative="1" as="geometry" />
        </mxCell>
        <mxCell id="7wAp7gqFgZ6DAbRb2kd5-69" style="edgeStyle=orthogonalEdgeStyle;rounded=0;orthogonalLoop=1;jettySize=auto;html=1;exitX=0;exitY=0.5;exitDx=0;exitDy=0;" parent="1" source="7wAp7gqFgZ6DAbRb2kd5-23" target="7wAp7gqFgZ6DAbRb2kd5-68" edge="1">
          <mxGeometry relative="1" as="geometry" />
        </mxCell>
        <mxCell id="7wAp7gqFgZ6DAbRb2kd5-23" value="Symbols?" style="rhombus;whiteSpace=wrap;html=1;" parent="1" vertex="1">
          <mxGeometry x="-190" y="342.5" width="80" height="80" as="geometry" />
        </mxCell>
        <mxCell id="7wAp7gqFgZ6DAbRb2kd5-30" style="edgeStyle=orthogonalEdgeStyle;rounded=0;orthogonalLoop=1;jettySize=auto;html=1;exitX=1;exitY=0.5;exitDx=0;exitDy=0;entryX=0.5;entryY=0;entryDx=0;entryDy=0;" parent="1" source="7wAp7gqFgZ6DAbRb2kd5-25" target="7wAp7gqFgZ6DAbRb2kd5-29" edge="1">
          <mxGeometry relative="1" as="geometry" />
        </mxCell>
        <mxCell id="7wAp7gqFgZ6DAbRb2kd5-53" style="edgeStyle=orthogonalEdgeStyle;rounded=0;orthogonalLoop=1;jettySize=auto;html=1;exitX=0;exitY=0.5;exitDx=0;exitDy=0;" parent="1" source="7wAp7gqFgZ6DAbRb2kd5-25" target="7wAp7gqFgZ6DAbRb2kd5-51" edge="1">
          <mxGeometry relative="1" as="geometry" />
        </mxCell>
        <mxCell id="7wAp7gqFgZ6DAbRb2kd5-25" value="Symbols?" style="rhombus;whiteSpace=wrap;html=1;" parent="1" vertex="1">
          <mxGeometry x="840" y="452.5" width="80" height="80" as="geometry" />
        </mxCell>
        <mxCell id="7wAp7gqFgZ6DAbRb2kd5-28" value="False" style="text;html=1;align=center;verticalAlign=middle;whiteSpace=wrap;rounded=0;" parent="1" vertex="1">
          <mxGeometry x="584" y="295" width="60" height="30" as="geometry" />
        </mxCell>
        <mxCell id="7wAp7gqFgZ6DAbRb2kd5-29" value="add &lt;b&gt;symbols&lt;/b&gt; case option" style="rounded=0;whiteSpace=wrap;html=1;" parent="1" vertex="1">
          <mxGeometry x="920" y="550" width="80" height="40" as="geometry" />
        </mxCell>
        <mxCell id="7wAp7gqFgZ6DAbRb2kd5-42" style="edgeStyle=orthogonalEdgeStyle;rounded=0;orthogonalLoop=1;jettySize=auto;html=1;exitX=0.5;exitY=1;exitDx=0;exitDy=0;entryX=0.5;entryY=0;entryDx=0;entryDy=0;" parent="1" source="7wAp7gqFgZ6DAbRb2kd5-32" target="7wAp7gqFgZ6DAbRb2kd5-40" edge="1">
          <mxGeometry relative="1" as="geometry" />
        </mxCell>
        <mxCell id="7wAp7gqFgZ6DAbRb2kd5-32" value="add &lt;b&gt;symbols&lt;/b&gt; case option" style="rounded=0;whiteSpace=wrap;html=1;" parent="1" vertex="1">
          <mxGeometry x="574" y="450" width="80" height="40" as="geometry" />
        </mxCell>
        <mxCell id="7wAp7gqFgZ6DAbRb2kd5-35" value="True" style="text;html=1;align=center;verticalAlign=middle;whiteSpace=wrap;rounded=0;" parent="1" vertex="1">
          <mxGeometry x="574" y="380" width="60" height="30" as="geometry" />
        </mxCell>
        <mxCell id="7wAp7gqFgZ6DAbRb2kd5-37" value="False" style="text;html=1;align=center;verticalAlign=middle;whiteSpace=wrap;rounded=0;" parent="1" vertex="1">
          <mxGeometry x="440" y="380" width="60" height="30" as="geometry" />
        </mxCell>
        <mxCell id="7wAp7gqFgZ6DAbRb2kd5-38" value="generate pass with &lt;b&gt;&lt;font color=&quot;#ff3333&quot;&gt;only&lt;/font&gt;&lt;/b&gt; &lt;b&gt;upper&lt;/b&gt; option (&lt;i&gt;+default option&lt;/i&gt;)" style="rounded=1;whiteSpace=wrap;html=1;" parent="1" vertex="1">
          <mxGeometry x="400" y="440" width="90" height="70" as="geometry" />
        </mxCell>
        <mxCell id="7wAp7gqFgZ6DAbRb2kd5-40" value="generate pass with&amp;nbsp;&lt;b&gt;upper &lt;/b&gt;and&lt;b&gt; symbols&lt;/b&gt; options" style="rounded=1;whiteSpace=wrap;html=1;" parent="1" vertex="1">
          <mxGeometry x="561" y="530" width="106" height="60" as="geometry" />
        </mxCell>
        <mxCell id="7wAp7gqFgZ6DAbRb2kd5-46" value="generate pass with&amp;nbsp;&lt;b&gt;upper, numbers&amp;nbsp;&lt;/b&gt;and&lt;b&gt; symbols&lt;/b&gt; options" style="rounded=1;whiteSpace=wrap;html=1;" parent="1" vertex="1">
          <mxGeometry x="920" y="640" width="106" height="60" as="geometry" />
        </mxCell>
        <mxCell id="7wAp7gqFgZ6DAbRb2kd5-48" style="edgeStyle=orthogonalEdgeStyle;rounded=0;orthogonalLoop=1;jettySize=auto;html=1;exitX=0.5;exitY=1;exitDx=0;exitDy=0;entryX=0.377;entryY=-0.017;entryDx=0;entryDy=0;entryPerimeter=0;" parent="1" source="7wAp7gqFgZ6DAbRb2kd5-29" target="7wAp7gqFgZ6DAbRb2kd5-46" edge="1">
          <mxGeometry relative="1" as="geometry" />
        </mxCell>
        <mxCell id="7wAp7gqFgZ6DAbRb2kd5-49" value="True" style="text;html=1;align=center;verticalAlign=middle;whiteSpace=wrap;rounded=0;" parent="1" vertex="1">
          <mxGeometry x="920" y="462.5" width="60" height="30" as="geometry" />
        </mxCell>
        <mxCell id="7wAp7gqFgZ6DAbRb2kd5-50" value="False" style="text;html=1;align=center;verticalAlign=middle;whiteSpace=wrap;rounded=0;" parent="1" vertex="1">
          <mxGeometry x="780" y="462.5" width="60" height="30" as="geometry" />
        </mxCell>
        <mxCell id="7wAp7gqFgZ6DAbRb2kd5-51" value="generate pass with&amp;nbsp;&lt;b&gt;upper &lt;/b&gt;and&lt;b&gt;&amp;nbsp;numbers&lt;/b&gt;&amp;nbsp;options" style="rounded=1;whiteSpace=wrap;html=1;" parent="1" vertex="1">
          <mxGeometry x="720" y="580" width="120" height="67.5" as="geometry" />
        </mxCell>
        <mxCell id="7wAp7gqFgZ6DAbRb2kd5-58" style="edgeStyle=orthogonalEdgeStyle;rounded=0;orthogonalLoop=1;jettySize=auto;html=1;exitX=1;exitY=0.5;exitDx=0;exitDy=0;entryX=0.5;entryY=0;entryDx=0;entryDy=0;" parent="1" source="7wAp7gqFgZ6DAbRb2kd5-54" target="7wAp7gqFgZ6DAbRb2kd5-57" edge="1">
          <mxGeometry relative="1" as="geometry" />
        </mxCell>
        <mxCell id="7wAp7gqFgZ6DAbRb2kd5-61" style="edgeStyle=orthogonalEdgeStyle;rounded=0;orthogonalLoop=1;jettySize=auto;html=1;exitX=0;exitY=0.5;exitDx=0;exitDy=0;entryX=0.5;entryY=0;entryDx=0;entryDy=0;" parent="1" source="7wAp7gqFgZ6DAbRb2kd5-54" target="7wAp7gqFgZ6DAbRb2kd5-60" edge="1">
          <mxGeometry relative="1" as="geometry" />
        </mxCell>
        <mxCell id="7wAp7gqFgZ6DAbRb2kd5-54" value="Symbols?" style="rhombus;whiteSpace=wrap;html=1;" parent="1" vertex="1">
          <mxGeometry x="130" y="375" width="80" height="80" as="geometry" />
        </mxCell>
        <mxCell id="7wAp7gqFgZ6DAbRb2kd5-64" style="edgeStyle=orthogonalEdgeStyle;rounded=0;orthogonalLoop=1;jettySize=auto;html=1;exitX=0.5;exitY=1;exitDx=0;exitDy=0;entryX=0.5;entryY=0;entryDx=0;entryDy=0;" parent="1" source="7wAp7gqFgZ6DAbRb2kd5-57" target="7wAp7gqFgZ6DAbRb2kd5-63" edge="1">
          <mxGeometry relative="1" as="geometry" />
        </mxCell>
        <mxCell id="7wAp7gqFgZ6DAbRb2kd5-57" value="add&amp;nbsp;&lt;b&gt;symbols&lt;/b&gt;&amp;nbsp;case option" style="rounded=0;whiteSpace=wrap;html=1;" parent="1" vertex="1">
          <mxGeometry x="230" y="462.5" width="110" height="57.5" as="geometry" />
        </mxCell>
        <mxCell id="7wAp7gqFgZ6DAbRb2kd5-59" value="True" style="text;html=1;align=center;verticalAlign=middle;whiteSpace=wrap;rounded=0;" parent="1" vertex="1">
          <mxGeometry x="210" y="392.5" width="60" height="30" as="geometry" />
        </mxCell>
        <mxCell id="7wAp7gqFgZ6DAbRb2kd5-60" value="generate pass with &lt;b&gt;&lt;font color=&quot;#ff3333&quot;&gt;only&lt;/font&gt;&lt;/b&gt; &lt;b&gt;numbers&lt;/b&gt; option" style="rounded=1;whiteSpace=wrap;html=1;" parent="1" vertex="1">
          <mxGeometry x="20" y="460" width="100" height="60" as="geometry" />
        </mxCell>
        <mxCell id="7wAp7gqFgZ6DAbRb2kd5-62" value="False" style="text;html=1;align=center;verticalAlign=middle;whiteSpace=wrap;rounded=0;" parent="1" vertex="1">
          <mxGeometry x="70" y="390" width="60" height="30" as="geometry" />
        </mxCell>
        <mxCell id="7wAp7gqFgZ6DAbRb2kd5-63" value="generate pass with&lt;span style=&quot;caret-color: rgb(255, 51, 51);&quot;&gt;&lt;b&gt;&lt;font color=&quot;#ff3333&quot;&gt;&amp;nbsp;&lt;/font&gt;numbers &lt;/b&gt;and&lt;/span&gt;&amp;nbsp;&lt;b&gt;symbols&lt;/b&gt; option" style="rounded=1;whiteSpace=wrap;html=1;" parent="1" vertex="1">
          <mxGeometry x="235" y="570" width="100" height="60" as="geometry" />
        </mxCell>
        <mxCell id="7wAp7gqFgZ6DAbRb2kd5-65" value="generate pass with &lt;b&gt;&lt;font color=&quot;#ff3333&quot;&gt;only&lt;/font&gt;&lt;/b&gt; &lt;b&gt;symbols&lt;/b&gt; option" style="rounded=1;whiteSpace=wrap;html=1;" parent="1" vertex="1">
          <mxGeometry x="-115" y="554.5" width="100" height="60" as="geometry" />
        </mxCell>
        <mxCell id="7wAp7gqFgZ6DAbRb2kd5-67" value="True" style="text;html=1;align=center;verticalAlign=middle;whiteSpace=wrap;rounded=0;" parent="1" vertex="1">
          <mxGeometry x="-120" y="350" width="60" height="30" as="geometry" />
        </mxCell>
        <mxCell id="7wAp7gqFgZ6DAbRb2kd5-68" value="generate pass with &lt;b&gt;&lt;font color=&quot;#ff3333&quot;&gt;only&lt;/font&gt;&lt;/b&gt; &lt;b&gt;default&lt;/b&gt; option" style="rounded=1;whiteSpace=wrap;html=1;" parent="1" vertex="1">
          <mxGeometry x="-300" y="461.25" width="100" height="60" as="geometry" />
        </mxCell>
        <mxCell id="7wAp7gqFgZ6DAbRb2kd5-70" value="False" style="text;html=1;align=center;verticalAlign=middle;whiteSpace=wrap;rounded=0;" parent="1" vertex="1">
          <mxGeometry x="-260" y="350" width="60" height="30" as="geometry" />
        </mxCell>
        <mxCell id="cqtuQnzMamP3KueugGHB-2" value="" style="edgeStyle=orthogonalEdgeStyle;rounded=0;orthogonalLoop=1;jettySize=auto;html=1;exitX=1;exitY=0.5;exitDx=0;exitDy=0;entryX=0.5;entryY=0;entryDx=0;entryDy=0;" edge="1" parent="1" source="7wAp7gqFgZ6DAbRb2kd5-23" target="cqtuQnzMamP3KueugGHB-1">
          <mxGeometry relative="1" as="geometry">
            <mxPoint x="-110" y="383" as="sourcePoint" />
            <mxPoint x="-70" y="555" as="targetPoint" />
          </mxGeometry>
        </mxCell>
        <mxCell id="cqtuQnzMamP3KueugGHB-1" value="add&amp;nbsp;&lt;b&gt;symbols&lt;/b&gt;&amp;nbsp;case option" style="rounded=0;whiteSpace=wrap;html=1;" vertex="1" parent="1">
          <mxGeometry x="-120" y="440" width="110" height="57.5" as="geometry" />
        </mxCell>
      </root>
    </mxGraphModel>
  </diagram>
  <diagram id="sCylKgT20NJ6yT4uOjWi" name="GUI ">
    <mxGraphModel dx="1434" dy="804" grid="1" gridSize="10" guides="1" tooltips="1" connect="1" arrows="1" fold="1" page="1" pageScale="1" pageWidth="827" pageHeight="1169" math="0" shadow="0">
      <root>
        <mxCell id="0" />
        <mxCell id="1" parent="0" />
        <mxCell id="BY65DIgYJKh5SC2nDrtf-1" value="" style="rounded=1;whiteSpace=wrap;html=1;fillColor=#404040;" vertex="1" parent="1">
          <mxGeometry x="164" y="137" width="520" height="213" as="geometry" />
        </mxCell>
        <mxCell id="BY65DIgYJKh5SC2nDrtf-2" value="&lt;font style=&quot;font-size: 21px;&quot;&gt;&lt;b&gt;Password Generator GUI&lt;/b&gt;&lt;/font&gt;" style="text;html=1;align=center;verticalAlign=middle;whiteSpace=wrap;rounded=0;" vertex="1" parent="1">
          <mxGeometry x="280" y="90" width="300" height="30" as="geometry" />
        </mxCell>
        <mxCell id="BY65DIgYJKh5SC2nDrtf-3" value="&amp;lt;&lt;i&gt;generated user password&lt;/i&gt;&amp;gt;" style="rounded=0;whiteSpace=wrap;html=1;" vertex="1" parent="1">
          <mxGeometry x="210" y="270" width="223" height="20" as="geometry" />
        </mxCell>
        <mxCell id="BY65DIgYJKh5SC2nDrtf-4" value="&lt;font color=&quot;#ffffff&quot;&gt;A new generated password&lt;/font&gt;" style="text;html=1;align=center;verticalAlign=middle;whiteSpace=wrap;rounded=0;" vertex="1" parent="1">
          <mxGeometry x="150" y="247" width="270" height="30" as="geometry" />
        </mxCell>
        <mxCell id="BY65DIgYJKh5SC2nDrtf-5" value="&lt;font style=&quot;font-size: 13px;&quot; color=&quot;#ffffff&quot;&gt;Available&lt;span style=&quot;caret-color: rgb(255, 255, 255);&quot;&gt;&amp;nbsp;options&amp;nbsp;&lt;/span&gt;&lt;/font&gt;" style="text;html=1;align=center;verticalAlign=middle;whiteSpace=wrap;rounded=0;" vertex="1" parent="1">
          <mxGeometry x="414" y="160" width="270" height="30" as="geometry" />
        </mxCell>
        <mxCell id="BY65DIgYJKh5SC2nDrtf-6" value="" style="whiteSpace=wrap;html=1;aspect=fixed;" vertex="1" parent="1">
          <mxGeometry x="490" y="190" width="12" height="12" as="geometry" />
        </mxCell>
        <mxCell id="BY65DIgYJKh5SC2nDrtf-7" value="" style="whiteSpace=wrap;html=1;aspect=fixed;" vertex="1" parent="1">
          <mxGeometry x="490" y="210" width="12" height="12" as="geometry" />
        </mxCell>
        <mxCell id="BY65DIgYJKh5SC2nDrtf-8" value="" style="whiteSpace=wrap;html=1;aspect=fixed;" vertex="1" parent="1">
          <mxGeometry x="490" y="228" width="12" height="12" as="geometry" />
        </mxCell>
        <mxCell id="BY65DIgYJKh5SC2nDrtf-11" value="&lt;font color=&quot;#ffffff&quot; style=&quot;font-size: 10px;&quot;&gt;Uppercase &amp;nbsp;letters&lt;/font&gt;" style="text;html=1;align=center;verticalAlign=middle;whiteSpace=wrap;rounded=0;" vertex="1" parent="1">
          <mxGeometry x="480" y="179" width="130" height="30" as="geometry" />
        </mxCell>
        <mxCell id="BY65DIgYJKh5SC2nDrtf-12" value="&lt;font color=&quot;#f5f5f5&quot; style=&quot;font-size: 10px;&quot;&gt;Numbers&lt;/font&gt;" style="text;html=1;align=center;verticalAlign=middle;whiteSpace=wrap;rounded=0;" vertex="1" parent="1">
          <mxGeometry x="476" y="200" width="100" height="30" as="geometry" />
        </mxCell>
        <mxCell id="BY65DIgYJKh5SC2nDrtf-13" value="&lt;font style=&quot;font-size: 10px;&quot; color=&quot;#fafafa&quot;&gt;Symbols&lt;/font&gt;" style="text;html=1;align=center;verticalAlign=middle;whiteSpace=wrap;rounded=0;" vertex="1" parent="1">
          <mxGeometry x="477" y="218" width="95" height="30" as="geometry" />
        </mxCell>
        <mxCell id="BY65DIgYJKh5SC2nDrtf-15" value="Generate" style="rounded=1;whiteSpace=wrap;html=1;" vertex="1" parent="1">
          <mxGeometry x="480" y="263.5" width="93" height="33" as="geometry" />
        </mxCell>
        <mxCell id="BY65DIgYJKh5SC2nDrtf-16" value="&lt;i&gt;watermark&lt;/i&gt;&lt;br&gt;created by &lt;b&gt;Krupoves&lt;/b&gt;" style="ellipse;whiteSpace=wrap;html=1;" vertex="1" parent="1">
          <mxGeometry x="210" y="160" width="80" height="80" as="geometry" />
        </mxCell>
      </root>
    </mxGraphModel>
  </diagram>
</mxfile>
